<svg xmlns="http://www.w3.org/2000/svg" xmlns:xlink="http://www.w3.org/1999/xlink" width="500" zoomAndPan="magnify" viewBox="0 0 375 374.999991" height="500" preserveAspectRatio="xMidYMid meet" version="1.0"><defs><g/><clipPath id="82075e4311"><path d="M 129.710938 87.347656 L 230.960938 87.347656 L 230.960938 196.847656 L 129.710938 196.847656 Z M 129.710938 87.347656 " clip-rule="nonzero"/></clipPath></defs><g clip-path="url(#82075e4311)"><path fill="#ffffff" d="M 230.632812 196.160156 C 223.234375 195.148438 215.691406 194.414062 208.078125 193.945312 C 207.238281 192.058594 206.070312 190.402344 204.578125 188.976562 C 202.414062 186.9375 200.039062 185.175781 197.460938 183.691406 C 198.734375 183.707031 199.976562 183.925781 201.175781 184.355469 C 202.378906 184.785156 203.480469 185.394531 204.480469 186.1875 C 208.273438 172.976562 219.972656 165.328125 216.417969 147.648438 C 218.441406 136.589844 213.832031 129.886719 211.140625 123.976562 C 212.496094 124.808594 213.515625 125.941406 214.195312 127.378906 C 215.191406 123.351562 216.703125 119.589844 213.613281 114.554688 C 217.140625 117.496094 217.347656 120.847656 216.292969 125.863281 C 220.414062 123.886719 222.273438 121.320312 223.269531 118.535156 C 223.898438 116.773438 223.992188 114.320312 224.742188 112.195312 C 225.703125 109.46875 226.777344 107.605469 226.316406 106.292969 C 225.839844 105.191406 225.273438 104.136719 224.613281 103.132812 C 223.070312 100.847656 221.21875 98.847656 219.0625 97.128906 C 216.90625 95.410156 214.539062 94.050781 211.96875 93.058594 C 205.710938 90.527344 200.050781 90.59375 194.703125 87.8125 C 194.402344 87.652344 194.085938 87.558594 193.75 87.527344 C 191.933594 87.335938 189.875 87.359375 188.335938 87.984375 C 186.222656 88.835938 184.816406 90.136719 182.164062 90.640625 C 181.667969 90.730469 181.238281 90.945312 180.867188 91.289062 C 180.5625 91.566406 180.292969 91.878906 180.054688 92.214844 C 179.789062 92.589844 179.632812 93 179.585938 93.457031 C 179.535156 93.910156 179.605469 94.347656 179.785156 94.765625 C 180.484375 96.433594 180.527344 98.355469 181.035156 99.605469 C 181.15625 99.90625 181.359375 100.128906 181.644531 100.28125 C 181.929688 100.433594 182.230469 100.472656 182.546875 100.402344 C 183.726562 100.121094 184.921875 100.042969 186.128906 100.164062 C 186.605469 100.226562 187.066406 100.164062 187.507812 99.972656 C 187.949219 99.78125 188.308594 99.492188 188.589844 99.097656 C 189.503906 97.859375 190.21875 96.371094 191.734375 95.726562 C 192.363281 94.847656 192.796875 93.878906 193.03125 92.824219 C 193.269531 91.769531 193.292969 90.710938 193.097656 89.648438 C 194.523438 91.597656 194.261719 93.875 193.503906 96.148438 C 198.695312 97.132812 200.585938 103.199219 206.332031 106.527344 C 210.324219 102.503906 216.375 106.03125 221.871094 104.921875 C 217.132812 108.378906 210.335938 103.171875 205.3125 109.820312 C 206.925781 109.457031 208.492188 109.925781 209.976562 110.523438 C 201.621094 110.550781 194.230469 114.722656 191.175781 123.296875 C 192.160156 123.292969 193.089844 123.066406 193.96875 122.625 C 193.433594 123.457031 192.707031 124.058594 191.792969 124.433594 C 190.425781 125.066406 189.761719 125.15625 188.382812 124.515625 C 186.894531 123.726562 185.617188 122.675781 184.554688 121.371094 C 183.03125 119.652344 182.335938 119.203125 182.203125 116.851562 C 182.121094 115.378906 182.199219 113.75 181.371094 111.652344 C 179.746094 107.535156 175.46875 104.3125 170.972656 104.375 C 165.824219 104.449219 160.199219 108.984375 158.105469 113.503906 C 157.402344 114.964844 157.1875 116.492188 157.464844 118.089844 C 157.648438 119.164062 158.152344 119.9375 158.265625 120.902344 C 158.269531 121.484375 158.382812 122.042969 158.613281 122.582031 C 158.917969 122.976562 159.3125 123.242188 159.792969 123.375 C 160.40625 123.621094 160.492188 123.863281 160.292969 124.46875 C 160.019531 125.230469 159.902344 126.019531 159.949219 126.828125 C 159.960938 127.828125 159.941406 128.757812 159.886719 129.753906 C 159.878906 129.980469 160.070312 130.144531 160.308594 130.265625 C 160.742188 130.53125 161.1875 130.550781 161.644531 130.324219 C 161.902344 130.214844 162.089844 130.101562 162.277344 130.019531 C 162.609375 129.875 162.867188 129.851562 163.050781 130.089844 C 163.21875 130.339844 163.28125 130.613281 163.246094 130.914062 C 163.203125 131.160156 163.25 131.394531 163.378906 131.609375 C 163.625 131.84375 163.917969 131.992188 164.25 132.046875 C 164.394531 132.082031 164.511719 132.152344 164.609375 132.265625 C 164.703125 132.378906 164.753906 132.507812 164.761719 132.652344 C 164.765625 132.761719 164.789062 132.867188 164.828125 132.96875 C 165.003906 133.421875 165.433594 133.375 165.804688 133.667969 C 166.113281 133.925781 166.3125 134.25 166.40625 134.636719 C 166.589844 135.324219 166.40625 135.53125 167.128906 136.050781 C 167.492188 136.300781 167.890625 136.464844 168.324219 136.542969 C 170.078125 136.882812 171.515625 135.144531 172.546875 133.929688 C 174.621094 131.46875 176.160156 128.070312 176.160156 124.890625 C 177.722656 127.824219 175.246094 132.566406 173.179688 135.328125 C 174.039062 135.546875 174.664062 136.058594 175.058594 136.851562 C 177.054688 135.453125 177.757812 132.019531 180.398438 132.113281 C 177.164062 133.816406 176.828125 138.921875 172.242188 139.636719 C 172.898438 140.039062 173.445312 140.558594 173.875 141.195312 C 174.304688 141.835938 174.582031 142.535156 174.707031 143.296875 C 173.605469 141.992188 172.292969 140.957031 170.769531 140.191406 C 163.953125 136.730469 157.058594 141.234375 153.609375 147.289062 C 151.191406 147.390625 149.011719 148.160156 147.066406 149.597656 C 147.773438 152.730469 147.890625 157.546875 143.640625 160.78125 C 149.332031 149.589844 141.578125 143.367188 138.925781 135.835938 C 138.261719 133.957031 137.746094 131.570312 138.667969 129.679688 C 138.097656 129.402344 137.613281 129.015625 137.21875 128.519531 C 136.820312 128.023438 136.546875 127.46875 136.398438 126.851562 C 140.007812 129.863281 144.308594 128.601562 145.800781 126.140625 C 146.898438 126.335938 148.851562 126.503906 149.828125 125.894531 C 150.152344 125.691406 150.394531 125.414062 150.558594 125.066406 C 150.824219 124.609375 150.847656 124.136719 150.632812 123.65625 C 150.382812 123.191406 149.78125 122.984375 149.035156 122.792969 C 148.980469 122.121094 148.832031 121.464844 148.59375 120.835938 C 148.484375 120.527344 148.304688 120.265625 148.058594 120.050781 C 147.816406 119.832031 147.535156 119.6875 147.214844 119.613281 C 145.5625 119.214844 143.992188 118.601562 142.507812 117.769531 C 142.238281 117.617188 141.949219 117.5625 141.640625 117.613281 C 141.332031 117.664062 141.078125 117.804688 140.867188 118.035156 C 138.648438 120.433594 136.246094 122.632812 133.664062 124.632812 C 133.304688 124.910156 133.039062 125.261719 132.867188 125.683594 C 130.015625 132.417969 129.183594 142.179688 130.015625 151.886719 C 130.316406 155.398438 133.019531 165.613281 135.648438 167.917969 C 135.953125 168.191406 136.292969 168.402344 136.671875 168.550781 C 138.527344 169.242188 141.117188 169.128906 142.964844 169.148438 C 150.1875 171.375 155.503906 169.886719 161.183594 165.265625 C 165.230469 161.972656 169.082031 158.214844 175.066406 161.003906 C 171.945312 160.660156 170.234375 161.105469 168.324219 162.660156 C 169.371094 162.988281 170.285156 163.539062 171.066406 164.308594 C 172.976562 166.070312 174.109375 167.410156 175.59375 168.640625 C 178.292969 170.882812 181.851562 172.304688 185.195312 173.273438 C 187.675781 173.96875 190.191406 174.515625 192.742188 174.90625 C 184.851562 175.132812 178.472656 173.710938 173.957031 170.140625 C 173.644531 171.382812 173.773438 172.578125 174.339844 173.726562 C 174.519531 174.074219 174.539062 174.425781 174.394531 174.789062 C 173.6875 176.699219 173.097656 179.835938 174.863281 182.421875 C 175.160156 182.84375 175.191406 183.285156 174.964844 183.746094 C 173.683594 186.4375 172.570312 190.367188 173.171875 193.707031 C 164.089844 194.144531 155.097656 194.957031 146.308594 196.160156 C 146.226562 196.167969 146.1875 196.214844 146.191406 196.296875 C 146.199219 196.382812 146.242188 196.421875 146.324219 196.421875 L 230.617188 196.421875 C 230.699219 196.421875 230.742188 196.382812 230.75 196.296875 C 230.753906 196.214844 230.714844 196.167969 230.632812 196.160156 Z M 180.898438 193.4375 C 180.390625 193.449219 179.878906 193.460938 179.367188 193.472656 C 180.398438 191.164062 181.777344 189.078125 183.5 187.222656 C 182.5 189.238281 181.632812 191.308594 180.898438 193.4375 Z M 193.9375 138.925781 C 204.195312 144.101562 205.800781 155.847656 203.949219 166.1875 C 205.804688 170.160156 205.613281 174.085938 204.359375 178.980469 C 204.59375 174.15625 203.722656 170.410156 201.878906 167.332031 C 203.433594 157.488281 202.347656 146.644531 193.9375 138.925781 Z M 193.9375 138.925781 " fill-opacity="1" fill-rule="nonzero"/></g><g fill="#ffffff" fill-opacity="1"><g transform="translate(81.545606, 246.934964)"><g><path d="M 1.015625 -11.703125 L 2.21875 -11.703125 C 2.894531 -11.703125 3.363281 -11.851562 3.625 -12.15625 C 3.894531 -12.457031 4.03125 -12.992188 4.03125 -13.765625 L 4.03125 -24.765625 C 4.03125 -25.566406 3.910156 -26.117188 3.671875 -26.421875 C 3.441406 -26.734375 2.941406 -26.890625 2.171875 -26.890625 L 1.015625 -26.890625 L 1.015625 -38.578125 L 30.5625 -38.578125 L 30.5625 -21.734375 L 21.1875 -21.734375 L 21.1875 -24.3125 C 21.1875 -25.21875 20.96875 -25.875 20.53125 -26.28125 C 20.09375 -26.6875 19.4375 -26.890625 18.5625 -26.890625 L 14.21875 -26.890625 L 14.21875 -21.1875 L 15.1875 -21.1875 C 16.15625 -21.1875 16.640625 -21.972656 16.640625 -23.546875 L 16.640625 -25.171875 L 19.625 -25.171875 L 19.625 -13.0625 L 16.546875 -13.0625 L 16.546875 -14.171875 C 16.546875 -14.878906 16.460938 -15.429688 16.296875 -15.828125 C 16.128906 -16.234375 15.738281 -16.4375 15.125 -16.4375 L 14.21875 -16.4375 L 14.21875 -13.515625 C 14.21875 -12.804688 14.332031 -12.328125 14.5625 -12.078125 C 14.800781 -11.828125 15.257812 -11.703125 15.9375 -11.703125 L 16.75 -11.703125 L 16.75 0 L 1.015625 0 Z M 1.015625 -11.703125 "/></g></g></g><g fill="#ffffff" fill-opacity="1"><g transform="translate(117.306508, 246.934964)"><g><path d="M 12.90625 0.609375 C 9.445312 0.609375 6.898438 0.210938 5.265625 -0.578125 C 3.640625 -1.367188 2.523438 -2.859375 1.921875 -5.046875 C 1.316406 -7.234375 1.015625 -10.660156 1.015625 -15.328125 L 1.015625 -23.296875 C 1.015625 -27.941406 1.320312 -31.351562 1.9375 -33.53125 C 2.5625 -35.71875 3.710938 -37.207031 5.390625 -38 C 7.078125 -38.789062 9.703125 -39.1875 13.265625 -39.1875 L 18.15625 -39.1875 C 21.488281 -39.1875 23.941406 -38.773438 25.515625 -37.953125 C 27.097656 -37.128906 28.164062 -35.664062 28.71875 -33.5625 C 29.28125 -31.457031 29.5625 -28.207031 29.5625 -23.8125 L 29.5625 -15.328125 C 29.5625 -10.554688 29.25 -7.085938 28.625 -4.921875 C 28 -2.753906 26.835938 -1.289062 25.140625 -0.53125 C 23.441406 0.226562 20.726562 0.609375 17 0.609375 Z M 15.125 -11 C 16.101562 -11 16.867188 -11.113281 17.421875 -11.34375 C 17.984375 -11.582031 18.40625 -12.03125 18.6875 -12.6875 C 18.96875 -13.34375 19.109375 -14.289062 19.109375 -15.53125 L 19.109375 -22.640625 C 19.109375 -24.222656 18.78125 -25.316406 18.125 -25.921875 C 17.476562 -26.523438 16.53125 -26.828125 15.28125 -26.828125 C 14.4375 -26.828125 13.742188 -26.703125 13.203125 -26.453125 C 12.671875 -26.203125 12.269531 -25.765625 12 -25.140625 C 11.726562 -24.515625 11.59375 -23.632812 11.59375 -22.5 L 11.59375 -15.53125 C 11.59375 -13.851562 11.878906 -12.675781 12.453125 -12 C 13.023438 -11.332031 13.914062 -11 15.125 -11 Z M 15.125 -11 "/></g></g></g><g fill="#ffffff" fill-opacity="1"><g transform="translate(152.865662, 246.934964)"><g><path d="M 13.171875 0.609375 C 9.703125 0.609375 7.132812 0.210938 5.46875 -0.578125 C 3.800781 -1.367188 2.640625 -2.863281 1.984375 -5.0625 C 1.335938 -7.269531 1.015625 -10.691406 1.015625 -15.328125 L 1.015625 -23.296875 C 1.015625 -27.804688 1.335938 -31.1875 1.984375 -33.4375 C 2.640625 -35.6875 3.65625 -37.207031 5.03125 -38 C 6.414062 -38.789062 8.382812 -39.1875 10.9375 -39.1875 L 13.46875 -39.1875 C 15.65625 -39.1875 17.300781 -38.789062 18.40625 -38 C 19.519531 -37.207031 20.144531 -36.160156 20.28125 -34.859375 L 20.53125 -34.859375 L 20.53125 -38.578125 L 29.609375 -38.578125 L 29.609375 -20.9375 L 18.90625 -20.9375 L 18.90625 -22.90625 C 18.90625 -23.976562 18.769531 -24.820312 18.5 -25.4375 C 18.238281 -26.0625 17.835938 -26.488281 17.296875 -26.71875 C 16.765625 -26.957031 16.0625 -27.078125 15.1875 -27.078125 C 14.238281 -27.078125 13.507812 -26.976562 13 -26.78125 C 12.5 -26.582031 12.140625 -26.1875 11.921875 -25.59375 C 11.703125 -25.007812 11.59375 -24.144531 11.59375 -23 L 11.59375 -15.328125 C 11.59375 -13.953125 11.675781 -12.960938 11.84375 -12.359375 C 12.019531 -11.753906 12.347656 -11.34375 12.828125 -11.125 C 13.316406 -10.90625 14.082031 -10.796875 15.125 -10.796875 C 16.207031 -10.796875 17.007812 -10.882812 17.53125 -11.0625 C 18.050781 -11.25 18.410156 -11.578125 18.609375 -12.046875 C 18.804688 -12.523438 18.90625 -13.234375 18.90625 -14.171875 L 18.90625 -15.484375 L 29.5625 -15.484375 L 29.5625 -10.34375 C 29.5625 -7.6875 29.265625 -5.59375 28.671875 -4.0625 C 28.085938 -2.53125 26.910156 -1.367188 25.140625 -0.578125 C 23.378906 0.210938 20.765625 0.609375 17.296875 0.609375 Z M 13.171875 0.609375 "/></g></g></g><g fill="#ffffff" fill-opacity="1"><g transform="translate(188.475257, 246.934964)"><g><path d="M 15.734375 0.609375 C 13.316406 0.609375 11.238281 0.445312 9.5 0.125 C 7.769531 -0.195312 6.332031 -0.894531 5.1875 -1.96875 C 4.050781 -3.039062 3.484375 -4.640625 3.484375 -6.765625 L 3.484375 -24.765625 C 3.484375 -25.535156 3.3125 -26.082031 2.96875 -26.40625 C 2.632812 -26.726562 2.082031 -26.890625 1.3125 -26.890625 L 0.40625 -26.890625 L 0.40625 -38.578125 L 16.4375 -38.578125 L 16.4375 -26.890625 C 15.601562 -26.890625 14.945312 -26.675781 14.46875 -26.25 C 14 -25.832031 13.765625 -25.253906 13.765625 -24.515625 L 13.765625 -13.515625 C 13.765625 -12.742188 14.023438 -12.15625 14.546875 -11.75 C 15.066406 -11.34375 15.914062 -11.140625 17.09375 -11.140625 C 18.269531 -11.140625 19.109375 -11.34375 19.609375 -11.75 C 20.117188 -12.15625 20.375 -12.796875 20.375 -13.671875 L 20.375 -24.515625 C 20.375 -25.285156 20.160156 -25.875 19.734375 -26.28125 C 19.316406 -26.6875 18.640625 -26.890625 17.703125 -26.890625 L 17.703125 -38.578125 L 33.75 -38.578125 L 33.75 -26.890625 L 32.6875 -26.890625 C 32.039062 -26.890625 31.5 -26.648438 31.0625 -26.171875 C 30.625 -25.703125 30.40625 -25.082031 30.40625 -24.3125 L 30.40625 -7.71875 C 30.40625 -5.226562 29.875 -3.378906 28.8125 -2.171875 C 27.757812 -0.960938 26.425781 -0.195312 24.8125 0.125 C 23.195312 0.445312 21.097656 0.609375 18.515625 0.609375 Z M 15.734375 0.609375 "/></g></g></g><g fill="#ffffff" fill-opacity="1"><g transform="translate(227.615467, 246.934964)"><g><path d="M 17.65625 0.609375 C 16.445312 0.609375 15.300781 0.40625 14.21875 0 C 13.144531 -0.40625 12.226562 -1.023438 11.46875 -1.859375 C 10.71875 -2.703125 10.238281 -3.75 10.03125 -5 L 9.828125 -5 L 9.828125 0 L 1.015625 0 L 1.015625 -16.296875 L 11.046875 -16.296875 L 11.046875 -14.21875 C 11.046875 -13.207031 11.363281 -12.492188 12 -12.078125 C 12.644531 -11.660156 13.6875 -11.453125 15.125 -11.453125 C 16.101562 -11.453125 16.851562 -11.507812 17.375 -11.625 C 17.894531 -11.738281 18.265625 -11.9375 18.484375 -12.21875 C 18.703125 -12.507812 18.8125 -12.925781 18.8125 -13.46875 C 18.8125 -14.132812 18.554688 -14.628906 18.046875 -14.953125 C 17.546875 -15.273438 16.984375 -15.523438 16.359375 -15.703125 C 15.742188 -15.890625 15.316406 -16.019531 15.078125 -16.09375 L 13.359375 -16.640625 C 13.160156 -16.710938 12.460938 -16.921875 11.265625 -17.265625 C 10.078125 -17.617188 8.976562 -18.015625 7.96875 -18.453125 C 6.25 -19.128906 4.921875 -19.835938 3.984375 -20.578125 C 3.046875 -21.316406 2.359375 -22.234375 1.921875 -23.328125 C 1.484375 -24.421875 1.265625 -25.820312 1.265625 -27.53125 L 1.265625 -30.96875 C 1.265625 -33.894531 1.976562 -35.992188 3.40625 -37.265625 C 4.832031 -38.546875 6.859375 -39.1875 9.484375 -39.1875 L 11.203125 -39.1875 C 12.941406 -39.1875 14.367188 -39.007812 15.484375 -38.65625 C 16.597656 -38.300781 17.4375 -37.765625 18 -37.046875 C 18.570312 -36.328125 18.960938 -35.378906 19.171875 -34.203125 L 19.375 -34.203125 L 19.375 -38.578125 L 28.390625 -38.578125 L 28.390625 -22.34375 L 18.40625 -22.34375 L 18.40625 -24.265625 C 18.40625 -25.171875 18.160156 -25.863281 17.671875 -26.34375 C 17.191406 -26.832031 16.328125 -27.078125 15.078125 -27.078125 C 14.335938 -27.078125 13.710938 -26.925781 13.203125 -26.625 C 12.703125 -26.320312 12.453125 -25.851562 12.453125 -25.21875 C 12.453125 -24.675781 12.628906 -24.226562 12.984375 -23.875 C 13.335938 -23.53125 13.75 -23.269531 14.21875 -23.09375 C 14.6875 -22.925781 15.359375 -22.707031 16.234375 -22.4375 L 18.65625 -21.6875 C 19.195312 -21.519531 19.828125 -21.328125 20.546875 -21.109375 C 21.273438 -20.890625 22.144531 -20.628906 23.15625 -20.328125 C 25.101562 -19.753906 26.664062 -18.800781 27.84375 -17.46875 C 29.019531 -16.144531 29.609375 -14.523438 29.609375 -12.609375 L 29.609375 -8.328125 C 29.609375 -6.609375 29.269531 -5.078125 28.59375 -3.734375 C 27.925781 -2.390625 26.953125 -1.328125 25.671875 -0.546875 C 24.390625 0.222656 22.859375 0.609375 21.078125 0.609375 Z M 17.65625 0.609375 "/></g></g></g><g fill="#ffffff" fill-opacity="1"><g transform="translate(263.023302, 246.934964)"><g><path d="M 17.65625 0.609375 C 16.445312 0.609375 15.300781 0.40625 14.21875 0 C 13.144531 -0.40625 12.226562 -1.023438 11.46875 -1.859375 C 10.71875 -2.703125 10.238281 -3.75 10.03125 -5 L 9.828125 -5 L 9.828125 0 L 1.015625 0 L 1.015625 -16.296875 L 11.046875 -16.296875 L 11.046875 -14.21875 C 11.046875 -13.207031 11.363281 -12.492188 12 -12.078125 C 12.644531 -11.660156 13.6875 -11.453125 15.125 -11.453125 C 16.101562 -11.453125 16.851562 -11.507812 17.375 -11.625 C 17.894531 -11.738281 18.265625 -11.9375 18.484375 -12.21875 C 18.703125 -12.507812 18.8125 -12.925781 18.8125 -13.46875 C 18.8125 -14.132812 18.554688 -14.628906 18.046875 -14.953125 C 17.546875 -15.273438 16.984375 -15.523438 16.359375 -15.703125 C 15.742188 -15.890625 15.316406 -16.019531 15.078125 -16.09375 L 13.359375 -16.640625 C 13.160156 -16.710938 12.460938 -16.921875 11.265625 -17.265625 C 10.078125 -17.617188 8.976562 -18.015625 7.96875 -18.453125 C 6.25 -19.128906 4.921875 -19.835938 3.984375 -20.578125 C 3.046875 -21.316406 2.359375 -22.234375 1.921875 -23.328125 C 1.484375 -24.421875 1.265625 -25.820312 1.265625 -27.53125 L 1.265625 -30.96875 C 1.265625 -33.894531 1.976562 -35.992188 3.40625 -37.265625 C 4.832031 -38.546875 6.859375 -39.1875 9.484375 -39.1875 L 11.203125 -39.1875 C 12.941406 -39.1875 14.367188 -39.007812 15.484375 -38.65625 C 16.597656 -38.300781 17.4375 -37.765625 18 -37.046875 C 18.570312 -36.328125 18.960938 -35.378906 19.171875 -34.203125 L 19.375 -34.203125 L 19.375 -38.578125 L 28.390625 -38.578125 L 28.390625 -22.34375 L 18.40625 -22.34375 L 18.40625 -24.265625 C 18.40625 -25.171875 18.160156 -25.863281 17.671875 -26.34375 C 17.191406 -26.832031 16.328125 -27.078125 15.078125 -27.078125 C 14.335938 -27.078125 13.710938 -26.925781 13.203125 -26.625 C 12.703125 -26.320312 12.453125 -25.851562 12.453125 -25.21875 C 12.453125 -24.675781 12.628906 -24.226562 12.984375 -23.875 C 13.335938 -23.53125 13.75 -23.269531 14.21875 -23.09375 C 14.6875 -22.925781 15.359375 -22.707031 16.234375 -22.4375 L 18.65625 -21.6875 C 19.195312 -21.519531 19.828125 -21.328125 20.546875 -21.109375 C 21.273438 -20.890625 22.144531 -20.628906 23.15625 -20.328125 C 25.101562 -19.753906 26.664062 -18.800781 27.84375 -17.46875 C 29.019531 -16.144531 29.609375 -14.523438 29.609375 -12.609375 L 29.609375 -8.328125 C 29.609375 -6.609375 29.269531 -5.078125 28.59375 -3.734375 C 27.925781 -2.390625 26.953125 -1.328125 25.671875 -0.546875 C 24.390625 0.222656 22.859375 0.609375 21.078125 0.609375 Z M 17.65625 0.609375 "/></g></g></g><g fill="#ffffff" fill-opacity="1"><g transform="translate(102.119024, 268.919954)"><g><path d="M 1.03125 -8.78125 L 4.203125 -8.78125 L 4.65625 -7.984375 C 4.945312 -7.484375 5.226562 -6.988281 5.5 -6.5 C 5.769531 -6.019531 6.007812 -5.59375 6.21875 -5.21875 C 6.4375 -4.84375 6.609375 -4.539062 6.734375 -4.3125 C 6.867188 -4.082031 6.9375 -3.96875 6.9375 -3.96875 C 6.9375 -3.96875 6.9375 -4.019531 6.9375 -4.125 C 6.9375 -4.21875 6.945312 -4.523438 6.96875 -5.046875 C 6.988281 -5.578125 7.023438 -6.332031 7.078125 -7.3125 C 7.078125 -7.332031 7.078125 -7.425781 7.078125 -7.59375 C 7.085938 -7.757812 7.101562 -8.007812 7.125 -8.34375 L 7.140625 -8.75 L 9.8125 -8.75 L 9.8125 0.34375 L 6.671875 0.34375 L 4.359375 -3.859375 C 4.304688 -3.921875 4.265625 -3.976562 4.234375 -4.03125 C 4.210938 -4.082031 4.203125 -4.097656 4.203125 -4.078125 C 4.179688 -4.066406 4.164062 -3.789062 4.15625 -3.25 C 4.144531 -3.09375 4.132812 -2.863281 4.125 -2.5625 C 4.113281 -2.269531 4.097656 -1.816406 4.078125 -1.203125 L 3.984375 0.34375 L 1.03125 0.34375 Z M 1.03125 -8.78125 "/></g></g></g><g fill="#ffffff" fill-opacity="1"><g transform="translate(115.496628, 268.919954)"><g><path d="M 6.390625 -6.734375 C 6.242188 -6.703125 6.019531 -6.660156 5.71875 -6.609375 C 5.425781 -6.566406 5.046875 -6.523438 4.578125 -6.484375 C 4.335938 -6.460938 4.210938 -6.4375 4.203125 -6.40625 C 4.203125 -6.382812 4.195312 -6.191406 4.1875 -5.828125 C 4.175781 -5.460938 4.15625 -4.929688 4.125 -4.234375 C 4.101562 -3.503906 4.082031 -2.957031 4.0625 -2.59375 C 4.050781 -2.226562 4.046875 -2.03125 4.046875 -2 L 4.046875 -1.859375 L 4.25 -1.921875 C 4.53125 -1.921875 4.816406 -1.925781 5.109375 -1.9375 C 5.410156 -1.945312 5.703125 -1.972656 5.984375 -2.015625 L 6.234375 -2.03125 L 6.234375 -2.140625 C 6.242188 -2.179688 6.253906 -2.390625 6.265625 -2.765625 C 6.285156 -3.148438 6.304688 -3.707031 6.328125 -4.4375 C 6.359375 -5.15625 6.378906 -5.695312 6.390625 -6.0625 C 6.410156 -6.4375 6.421875 -6.640625 6.421875 -6.671875 C 6.421875 -6.710938 6.410156 -6.734375 6.390625 -6.734375 Z M 1.03125 -8.78125 L 5.265625 -8.78125 C 8.085938 -8.78125 9.5 -8.757812 9.5 -8.71875 C 9.488281 -8.707031 9.484375 -7.195312 9.484375 -4.1875 L 9.484375 0.28125 L 1.03125 0.28125 Z M 1.03125 -8.78125 "/></g></g></g><g fill="#ffffff" fill-opacity="1"><g transform="translate(128.563446, 268.919954)"><g/></g></g><g fill="#ffffff" fill-opacity="1"><g transform="translate(134.728355, 268.919954)"><g><path d="M 5.296875 -6.46875 C 4.960938 -6.539062 4.703125 -6.59375 4.515625 -6.625 C 4.335938 -6.65625 4.234375 -6.671875 4.203125 -6.671875 C 4.203125 -6.628906 4.203125 -6.582031 4.203125 -6.53125 C 4.191406 -6.445312 4.175781 -6.304688 4.15625 -6.109375 C 4.132812 -5.722656 4.132812 -5.53125 4.15625 -5.53125 C 4.15625 -5.519531 4.488281 -5.457031 5.15625 -5.34375 C 5.519531 -5.269531 5.785156 -5.21875 5.953125 -5.1875 C 6.128906 -5.164062 6.226562 -5.15625 6.25 -5.15625 C 6.269531 -5.132812 6.28125 -5.132812 6.28125 -5.15625 C 6.289062 -5.175781 6.304688 -5.25 6.328125 -5.375 C 6.335938 -5.5 6.34375 -5.609375 6.34375 -5.703125 C 6.351562 -5.796875 6.367188 -5.878906 6.390625 -5.953125 C 6.398438 -6.003906 6.40625 -6.050781 6.40625 -6.09375 C 6.40625 -6.132812 6.40625 -6.164062 6.40625 -6.1875 L 6.421875 -6.265625 C 6.429688 -6.265625 6.40625 -6.269531 6.34375 -6.28125 C 6.28125 -6.289062 6.195312 -6.304688 6.09375 -6.328125 C 5.988281 -6.347656 5.863281 -6.367188 5.71875 -6.390625 C 5.582031 -6.421875 5.441406 -6.445312 5.296875 -6.46875 Z M 1.03125 -8.78125 L 8.828125 -8.78125 L 8.828125 -2.921875 L 3.890625 -2.921875 L 3.875 -2.796875 C 3.894531 -2.722656 3.851562 -2.207031 3.75 -1.25 C 3.707031 -0.75 3.671875 -0.375 3.640625 -0.125 C 3.617188 0.113281 3.609375 0.242188 3.609375 0.265625 C 3.609375 0.273438 3.175781 0.28125 2.3125 0.28125 L 1.03125 0.28125 Z M 1.03125 -8.78125 "/></g></g></g><g fill="#ffffff" fill-opacity="1"><g transform="translate(146.888731, 268.919954)"><g><path d="M 5.265625 -5.765625 C 5.234375 -5.765625 5.179688 -5.546875 5.109375 -5.109375 C 5.066406 -4.921875 5.039062 -4.78125 5.03125 -4.6875 C 5.019531 -4.59375 5.015625 -4.519531 5.015625 -4.46875 C 5.023438 -4.425781 5.039062 -4.398438 5.0625 -4.390625 C 5.09375 -4.378906 5.132812 -4.375 5.1875 -4.375 C 5.238281 -4.375 5.320312 -4.367188 5.4375 -4.359375 C 5.550781 -4.359375 5.703125 -4.359375 5.890625 -4.359375 C 6.296875 -4.304688 6.5 -4.289062 6.5 -4.3125 C 6.53125 -4.320312 6.507812 -4.539062 6.4375 -4.96875 C 6.394531 -5.164062 6.359375 -5.3125 6.328125 -5.40625 C 6.304688 -5.507812 6.28125 -5.566406 6.25 -5.578125 C 6.238281 -5.597656 6.1875 -5.617188 6.09375 -5.640625 C 6 -5.660156 5.894531 -5.675781 5.78125 -5.6875 C 5.675781 -5.707031 5.570312 -5.722656 5.46875 -5.734375 C 5.363281 -5.753906 5.296875 -5.765625 5.265625 -5.765625 Z M 2 -8.65625 L 2 -8.765625 L 5.71875 -8.765625 C 6.976562 -8.773438 7.914062 -8.773438 8.53125 -8.765625 C 9.144531 -8.765625 9.453125 -8.757812 9.453125 -8.75 C 9.453125 -8.738281 9.476562 -8.578125 9.53125 -8.265625 C 9.582031 -7.960938 9.65625 -7.507812 9.75 -6.90625 C 9.894531 -6.007812 10.035156 -5.113281 10.171875 -4.21875 C 10.316406 -3.320312 10.453125 -2.429688 10.578125 -1.546875 C 10.648438 -0.992188 10.710938 -0.566406 10.765625 -0.265625 C 10.828125 0.0234375 10.859375 0.175781 10.859375 0.1875 L 10.875 0.28125 L 7.40625 0.28125 L 7.390625 0.203125 C 7.390625 0.171875 7.320312 -0.1875 7.1875 -0.875 C 7.125 -1.21875 7.082031 -1.472656 7.0625 -1.640625 C 7.039062 -1.816406 7.03125 -1.910156 7.03125 -1.921875 C 7.03125 -1.929688 6.597656 -1.9375 5.734375 -1.9375 L 4.515625 -1.9375 L 4.46875 -1.75 C 4.445312 -1.6875 4.421875 -1.5625 4.390625 -1.375 C 4.367188 -1.1875 4.328125 -0.941406 4.265625 -0.640625 L 4.078125 0.28125 L 0.671875 0.28125 L 0.671875 0.171875 C 0.742188 -0.0976562 0.867188 -0.921875 1.046875 -2.296875 C 1.054688 -2.335938 1.066406 -2.390625 1.078125 -2.453125 C 1.085938 -2.523438 1.097656 -2.597656 1.109375 -2.671875 C 1.128906 -2.753906 1.144531 -2.828125 1.15625 -2.890625 C 1.164062 -2.953125 1.171875 -3 1.171875 -3.03125 C 1.410156 -4.769531 1.601562 -6.101562 1.75 -7.03125 C 1.894531 -7.957031 1.976562 -8.5 2 -8.65625 Z M 2 -8.65625 "/></g></g></g><g fill="#ffffff" fill-opacity="1"><g transform="translate(160.991479, 268.919954)"><g><path d="M 0.640625 -8.78125 L 7.703125 -8.78125 L 7.703125 -7.140625 L 6.234375 -7.140625 L 6.234375 -1.53125 L 7.703125 -1.53125 L 7.703125 0.28125 L 0.640625 0.28125 L 0.640625 -1.53125 L 2.046875 -1.53125 L 2.046875 -7.140625 L 0.640625 -7.140625 Z M 0.640625 -8.78125 "/></g></g></g><g fill="#ffffff" fill-opacity="1"><g transform="translate(171.882843, 268.919954)"><g><path d="M 1.03125 -8.78125 L 4.203125 -8.78125 L 4.65625 -7.984375 C 4.945312 -7.484375 5.226562 -6.988281 5.5 -6.5 C 5.769531 -6.019531 6.007812 -5.59375 6.21875 -5.21875 C 6.4375 -4.84375 6.609375 -4.539062 6.734375 -4.3125 C 6.867188 -4.082031 6.9375 -3.96875 6.9375 -3.96875 C 6.9375 -3.96875 6.9375 -4.019531 6.9375 -4.125 C 6.9375 -4.21875 6.945312 -4.523438 6.96875 -5.046875 C 6.988281 -5.578125 7.023438 -6.332031 7.078125 -7.3125 C 7.078125 -7.332031 7.078125 -7.425781 7.078125 -7.59375 C 7.085938 -7.757812 7.101562 -8.007812 7.125 -8.34375 L 7.140625 -8.75 L 9.8125 -8.75 L 9.8125 0.34375 L 6.671875 0.34375 L 4.359375 -3.859375 C 4.304688 -3.921875 4.265625 -3.976562 4.234375 -4.03125 C 4.210938 -4.082031 4.203125 -4.097656 4.203125 -4.078125 C 4.179688 -4.066406 4.164062 -3.789062 4.15625 -3.25 C 4.144531 -3.09375 4.132812 -2.863281 4.125 -2.5625 C 4.113281 -2.269531 4.097656 -1.816406 4.078125 -1.203125 L 3.984375 0.34375 L 1.03125 0.34375 Z M 1.03125 -8.78125 "/></g></g></g><g fill="#ffffff" fill-opacity="1"><g transform="translate(185.260448, 268.919954)"><g/></g></g><g fill="#ffffff" fill-opacity="1"><g transform="translate(191.425357, 268.919954)"><g><path d="M 1.03125 -8.78125 L 4.203125 -8.78125 L 4.65625 -7.984375 C 4.945312 -7.484375 5.226562 -6.988281 5.5 -6.5 C 5.769531 -6.019531 6.007812 -5.59375 6.21875 -5.21875 C 6.4375 -4.84375 6.609375 -4.539062 6.734375 -4.3125 C 6.867188 -4.082031 6.9375 -3.96875 6.9375 -3.96875 C 6.9375 -3.96875 6.9375 -4.019531 6.9375 -4.125 C 6.9375 -4.21875 6.945312 -4.523438 6.96875 -5.046875 C 6.988281 -5.578125 7.023438 -6.332031 7.078125 -7.3125 C 7.078125 -7.332031 7.078125 -7.425781 7.078125 -7.59375 C 7.085938 -7.757812 7.101562 -8.007812 7.125 -8.34375 L 7.140625 -8.75 L 9.8125 -8.75 L 9.8125 0.34375 L 6.671875 0.34375 L 4.359375 -3.859375 C 4.304688 -3.921875 4.265625 -3.976562 4.234375 -4.03125 C 4.210938 -4.082031 4.203125 -4.097656 4.203125 -4.078125 C 4.179688 -4.066406 4.164062 -3.789062 4.15625 -3.25 C 4.144531 -3.09375 4.132812 -2.863281 4.125 -2.5625 C 4.113281 -2.269531 4.097656 -1.816406 4.078125 -1.203125 L 3.984375 0.34375 L 1.03125 0.34375 Z M 1.03125 -8.78125 "/></g></g></g><g fill="#ffffff" fill-opacity="1"><g transform="translate(204.802961, 268.919954)"><g><path d="M 6.390625 -6.734375 C 6.242188 -6.703125 6.019531 -6.660156 5.71875 -6.609375 C 5.425781 -6.566406 5.046875 -6.523438 4.578125 -6.484375 C 4.335938 -6.460938 4.210938 -6.4375 4.203125 -6.40625 C 4.203125 -6.382812 4.195312 -6.191406 4.1875 -5.828125 C 4.175781 -5.460938 4.15625 -4.929688 4.125 -4.234375 C 4.101562 -3.503906 4.082031 -2.957031 4.0625 -2.59375 C 4.050781 -2.226562 4.046875 -2.03125 4.046875 -2 L 4.046875 -1.859375 L 4.25 -1.921875 C 4.53125 -1.921875 4.816406 -1.925781 5.109375 -1.9375 C 5.410156 -1.945312 5.703125 -1.972656 5.984375 -2.015625 L 6.234375 -2.03125 L 6.234375 -2.140625 C 6.242188 -2.179688 6.253906 -2.390625 6.265625 -2.765625 C 6.285156 -3.148438 6.304688 -3.707031 6.328125 -4.4375 C 6.359375 -5.15625 6.378906 -5.695312 6.390625 -6.0625 C 6.410156 -6.4375 6.421875 -6.640625 6.421875 -6.671875 C 6.421875 -6.710938 6.410156 -6.734375 6.390625 -6.734375 Z M 1.03125 -8.78125 L 5.265625 -8.78125 C 8.085938 -8.78125 9.5 -8.757812 9.5 -8.71875 C 9.488281 -8.707031 9.484375 -7.195312 9.484375 -4.1875 L 9.484375 0.28125 L 1.03125 0.28125 Z M 1.03125 -8.78125 "/></g></g></g><g fill="#ffffff" fill-opacity="1"><g transform="translate(217.869778, 268.919954)"><g/></g></g><g fill="#ffffff" fill-opacity="1"><g transform="translate(224.034687, 268.919954)"><g><path d="M 1.03125 -8.75 L 9.421875 -8.75 L 9.421875 -5.53125 L 9.296875 -5.5625 C 9.085938 -5.601562 8.613281 -5.660156 7.875 -5.734375 C 7.144531 -5.804688 6.148438 -5.910156 4.890625 -6.046875 C 4.523438 -6.097656 4.332031 -6.113281 4.3125 -6.09375 C 4.3125 -6.09375 4.476562 -5.296875 4.8125 -3.703125 C 4.9375 -3.078125 5.023438 -2.613281 5.078125 -2.3125 C 5.128906 -2.007812 5.160156 -1.859375 5.171875 -1.859375 C 5.171875 -1.859375 5.257812 -1.847656 5.4375 -1.828125 C 5.613281 -1.804688 5.8125 -1.785156 6.03125 -1.765625 C 6.25 -1.753906 6.457031 -1.738281 6.65625 -1.71875 C 6.863281 -1.707031 6.992188 -1.703125 7.046875 -1.703125 C 7.265625 -1.671875 7.378906 -1.660156 7.390625 -1.671875 C 7.398438 -1.691406 7.414062 -1.75 7.4375 -1.84375 C 7.46875 -1.945312 7.492188 -2.050781 7.515625 -2.15625 C 7.546875 -2.257812 7.570312 -2.351562 7.59375 -2.4375 C 7.613281 -2.53125 7.625 -2.585938 7.625 -2.609375 C 7.613281 -2.640625 7.390625 -2.617188 6.953125 -2.546875 C 6.785156 -2.535156 6.648438 -2.53125 6.546875 -2.53125 C 6.453125 -2.53125 6.394531 -2.53125 6.375 -2.53125 C 6.3125 -2.53125 6.269531 -2.601562 6.25 -2.75 C 6.238281 -2.8125 6.21875 -2.921875 6.1875 -3.078125 C 6.164062 -3.234375 6.128906 -3.4375 6.078125 -3.6875 C 6.023438 -3.96875 5.984375 -4.179688 5.953125 -4.328125 C 5.921875 -4.472656 5.90625 -4.550781 5.90625 -4.5625 C 5.90625 -4.570312 6.488281 -4.578125 7.65625 -4.578125 L 9.421875 -4.578125 L 9.421875 0.296875 L 1.03125 0.296875 Z M 1.03125 -8.75 "/></g></g></g><g fill="#ffffff" fill-opacity="1"><g transform="translate(237.02381, 268.919954)"><g><path d="M 5.265625 -5.765625 C 5.234375 -5.765625 5.179688 -5.546875 5.109375 -5.109375 C 5.066406 -4.921875 5.039062 -4.78125 5.03125 -4.6875 C 5.019531 -4.59375 5.015625 -4.519531 5.015625 -4.46875 C 5.023438 -4.425781 5.039062 -4.398438 5.0625 -4.390625 C 5.09375 -4.378906 5.132812 -4.375 5.1875 -4.375 C 5.238281 -4.375 5.320312 -4.367188 5.4375 -4.359375 C 5.550781 -4.359375 5.703125 -4.359375 5.890625 -4.359375 C 6.296875 -4.304688 6.5 -4.289062 6.5 -4.3125 C 6.53125 -4.320312 6.507812 -4.539062 6.4375 -4.96875 C 6.394531 -5.164062 6.359375 -5.3125 6.328125 -5.40625 C 6.304688 -5.507812 6.28125 -5.566406 6.25 -5.578125 C 6.238281 -5.597656 6.1875 -5.617188 6.09375 -5.640625 C 6 -5.660156 5.894531 -5.675781 5.78125 -5.6875 C 5.675781 -5.707031 5.570312 -5.722656 5.46875 -5.734375 C 5.363281 -5.753906 5.296875 -5.765625 5.265625 -5.765625 Z M 2 -8.65625 L 2 -8.765625 L 5.71875 -8.765625 C 6.976562 -8.773438 7.914062 -8.773438 8.53125 -8.765625 C 9.144531 -8.765625 9.453125 -8.757812 9.453125 -8.75 C 9.453125 -8.738281 9.476562 -8.578125 9.53125 -8.265625 C 9.582031 -7.960938 9.65625 -7.507812 9.75 -6.90625 C 9.894531 -6.007812 10.035156 -5.113281 10.171875 -4.21875 C 10.316406 -3.320312 10.453125 -2.429688 10.578125 -1.546875 C 10.648438 -0.992188 10.710938 -0.566406 10.765625 -0.265625 C 10.828125 0.0234375 10.859375 0.175781 10.859375 0.1875 L 10.875 0.28125 L 7.40625 0.28125 L 7.390625 0.203125 C 7.390625 0.171875 7.320312 -0.1875 7.1875 -0.875 C 7.125 -1.21875 7.082031 -1.472656 7.0625 -1.640625 C 7.039062 -1.816406 7.03125 -1.910156 7.03125 -1.921875 C 7.03125 -1.929688 6.597656 -1.9375 5.734375 -1.9375 L 4.515625 -1.9375 L 4.46875 -1.75 C 4.445312 -1.6875 4.421875 -1.5625 4.390625 -1.375 C 4.367188 -1.1875 4.328125 -0.941406 4.265625 -0.640625 L 4.078125 0.28125 L 0.671875 0.28125 L 0.671875 0.171875 C 0.742188 -0.0976562 0.867188 -0.921875 1.046875 -2.296875 C 1.054688 -2.335938 1.066406 -2.390625 1.078125 -2.453125 C 1.085938 -2.523438 1.097656 -2.597656 1.109375 -2.671875 C 1.128906 -2.753906 1.144531 -2.828125 1.15625 -2.890625 C 1.164062 -2.953125 1.171875 -3 1.171875 -3.03125 C 1.410156 -4.769531 1.601562 -6.101562 1.75 -7.03125 C 1.894531 -7.957031 1.976562 -8.5 2 -8.65625 Z M 2 -8.65625 "/></g></g></g><g fill="#ffffff" fill-opacity="1"><g transform="translate(251.126558, 268.919954)"><g><path d="M 0.640625 -8.78125 L 7.703125 -8.78125 L 7.703125 -7.140625 L 6.234375 -7.140625 L 6.234375 -1.53125 L 7.703125 -1.53125 L 7.703125 0.28125 L 0.640625 0.28125 L 0.640625 -1.53125 L 2.046875 -1.53125 L 2.046875 -7.140625 L 0.640625 -7.140625 Z M 0.640625 -8.78125 "/></g></g></g><g fill="#ffffff" fill-opacity="1"><g transform="translate(262.017923, 268.919954)"><g><path d="M 1.03125 -8.78125 L 4.203125 -8.78125 L 4.65625 -7.984375 C 4.945312 -7.484375 5.226562 -6.988281 5.5 -6.5 C 5.769531 -6.019531 6.007812 -5.59375 6.21875 -5.21875 C 6.4375 -4.84375 6.609375 -4.539062 6.734375 -4.3125 C 6.867188 -4.082031 6.9375 -3.96875 6.9375 -3.96875 C 6.9375 -3.96875 6.9375 -4.019531 6.9375 -4.125 C 6.9375 -4.21875 6.945312 -4.523438 6.96875 -5.046875 C 6.988281 -5.578125 7.023438 -6.332031 7.078125 -7.3125 C 7.078125 -7.332031 7.078125 -7.425781 7.078125 -7.59375 C 7.085938 -7.757812 7.101562 -8.007812 7.125 -8.34375 L 7.140625 -8.75 L 9.8125 -8.75 L 9.8125 0.34375 L 6.671875 0.34375 L 4.359375 -3.859375 C 4.304688 -3.921875 4.265625 -3.976562 4.234375 -4.03125 C 4.210938 -4.082031 4.203125 -4.097656 4.203125 -4.078125 C 4.179688 -4.066406 4.164062 -3.789062 4.15625 -3.25 C 4.144531 -3.09375 4.132812 -2.863281 4.125 -2.5625 C 4.113281 -2.269531 4.097656 -1.816406 4.078125 -1.203125 L 3.984375 0.34375 L 1.03125 0.34375 Z M 1.03125 -8.78125 "/></g></g></g></svg>